<svg xmlns="http://www.w3.org/2000/svg" width="640" height="480" viewBox="0 0 640 480" role="img" aria-labelledby="title desc">
  <title id="title">January Snow Days</title>
  <desc id="desc">A January calendar with snow days marked by bold X symbols on the 3rd, 7th, 10th, 14th, 18th, 21st, 25th, and 29th.</desc>
  <rect width="640" height="480" fill="#f7f7f5"/>
  <text x="320" y="34" text-anchor="middle" font-family="Arial, sans-serif" font-size="24" fill="#222">January Snow Days</text>
  <g transform="translate(30,50)" font-family="Arial, sans-serif">
    <rect x="0" y="0" width="560" height="30" fill="#dddddd" stroke="#999"/>
    <g font-size="16" fill="#222" text-anchor="middle">
      <text x="40" y="20">Sun</text>
      <text x="120" y="20">Mon</text>
      <text x="200" y="20">Tue</text>
      <text x="280" y="20">Wed</text>
      <text x="360" y="20">Thu</text>
      <text x="440" y="20">Fri</text>
      <text x="520" y="20">Sat</text>
    </g>
    <g fill="none" stroke="#999">
      <rect x="0" y="30" width="560" height="275"/>
      <line x1="80" y1="30" x2="80" y2="305"/>
      <line x1="160" y1="30" x2="160" y2="305"/>
      <line x1="240" y1="30" x2="240" y2="305"/>
      <line x1="320" y1="30" x2="320" y2="305"/>
      <line x1="400" y1="30" x2="400" y2="305"/>
      <line x1="480" y1="30" x2="480" y2="305"/>
      <line x1="0" y1="85" x2="560" y2="85"/>
      <line x1="0" y1="140" x2="560" y2="140"/>
      <line x1="0" y1="195" x2="560" y2="195"/>
      <line x1="0" y1="250" x2="560" y2="250"/>
    </g>
    <g font-size="14" fill="#666">
      <text x="315" y="47">1</text>
      <text x="395" y="47">2</text>
      <text x="475" y="47">3</text>
      <text x="555" y="47">4</text>
      <text x="75" y="102">5</text>
      <text x="155" y="102">6</text>
      <text x="235" y="102">7</text>
      <text x="315" y="102">8</text>
      <text x="395" y="102">9</text>
      <text x="475" y="102">10</text>
      <text x="555" y="102">11</text>
      <text x="75" y="157">12</text>
      <text x="155" y="157">13</text>
      <text x="235" y="157">14</text>
      <text x="315" y="157">15</text>
      <text x="395" y="157">16</text>
      <text x="475" y="157">17</text>
      <text x="555" y="157">18</text>
      <text x="75" y="212">19</text>
      <text x="155" y="212">20</text>
      <text x="235" y="212">21</text>
      <text x="315" y="212">22</text>
      <text x="395" y="212">23</text>
      <text x="475" y="212">24</text>
      <text x="555" y="212">25</text>
      <text x="75" y="267">26</text>
      <text x="155" y="267">27</text>
      <text x="235" y="267">28</text>
      <text x="315" y="267">29</text>
      <text x="395" y="267">30</text>
      <text x="475" y="267">31</text>
    </g>
    <g stroke="#4a90e2" stroke-width="3" stroke-linecap="round">
      <path d="M464 50 l14 18 M478 50 l-14 18"/>
      <path d="M224 105 l14 18 M238 105 l-14 18"/>
      <path d="M464 105 l14 18 M478 105 l-14 18"/>
      <path d="M224 160 l14 18 M238 160 l-14 18"/>
      <path d="M464 160 l14 18 M478 160 l-14 18"/>
      <path d="M224 215 l14 18 M238 215 l-14 18"/>
      <path d="M464 215 l14 18 M478 215 l-14 18"/>
      <path d="M304 270 l14 18 M318 270 l-14 18"/>
    </g>
  </g>
</svg>
